<?xml version="1.0" encoding="UTF-8"?>
<!DOCTYPE svg PUBLIC "-//W3C//DTD SVG 1.1//EN" "http://www.w3.org/Graphics/SVG/1.1/DTD/svg11.dtd">
<!-- Creator: CorelDRAW -->
<svg xmlns="http://www.w3.org/2000/svg" xml:space="preserve" width="81.1458mm" height="94.8098mm" version="1.1" style="shape-rendering:geometricPrecision; text-rendering:geometricPrecision; image-rendering:optimizeQuality; fill-rule:evenodd; clip-rule:evenodd"
viewBox="0 0 8115 9481"
 xmlns:xlink="http://www.w3.org/1999/xlink">
 <defs>
  <style type="text/css">
   <![CDATA[
    .fil17 {fill:black}
    .fil16 {fill:#4B4BB8}
    .fil7 {fill:#8080FF}
    .fil5 {fill:#999999}
    .fil1 {fill:#99D0E8}
    .fil3 {fill:#AFAFCD}
    .fil13 {fill:#B91A1A}
    .fil6 {fill:#C7C7E6}
    .fil0 {fill:#CCFFFF}
    .fil9 {fill:#E34D4D}
    .fil4 {fill:#E4E4E4}
    .fil12 {fill:#F0CA80}
    .fil8 {fill:#FF8080}
    .fil15 {fill:#FFB49D}
    .fil11 {fill:#FFD9C2}
    .fil14 {fill:#FFDAA5}
    .fil10 {fill:#FFE4BE}
    .fil2 {fill:white}
   ]]>
  </style>
 </defs>
 <g id="__x0023_Layer_x0020_1">
  <metadata id="CorelCorpID_0Corel-Layer"/>
  <g id="peop1473.ai">
   <g>
    <polygon class="fil0" points="6937,7184 4678,7042 2984,7704 4183,7092 2607,7163 1006,7469 629,7964 1949,8131 608,8224 562,8651 2842,9334 4581,9003 3550,9481 6958,9334 6560,8718 8115,8882 5784,8295 7809,7704 7268,7423 5080,7939 "/>
    <polygon class="fil1" points="2368,8320 1169,8320 767,8555 2138,8815 3009,8412 2418,8836 3219,8836 4066,8437 5005,8391 3831,8177 5223,8295 6560,8483 5570,8177 6069,8035 7054,7796 6677,7658 4795,7846 5478,7591 5080,7469 4539,7519 4087,7729 4724,7989 3852,7796 4112,7494 1639,7566 2536,7846 1735,7821 2184,8010 1475,8152 "/>
    <polygon class="fil2" points="4326,38 4435,0 4699,117 4711,331 4820,344 4996,616 4996,993 4900,1396 4690,1899 4443,1899 4267,2150 4958,3366 4925,3684 4409,4238 4326,4896 4435,5143 4279,5336 4347,5935 4221,6019 4279,6291 4183,6467 3714,6111 3563,6174 3219,6723 3051,7398 2217,7964 1970,7591 2607,7222 2607,6337 1169,5499 1052,5122 968,4921 1169,4581 1568,4166 2020,3693 2125,3445 2041,2636 1949,1463 2406,956 2879,922 3395,1396 3454,1203 3370,1073 3349,725 3550,155 3898,25 "/>
    <polygon class="fil3" points="2351,6249 2565,6476 2636,6949 2808,7268 2968,6849 2896,6463 3165,6073 2867,6262 2423,6149 2138,5801 1865,6073 "/>
    <polygon class="fil2" points="1949,1358 1521,1714 1090,1739 733,1995 708,2703 465,2976 876,3445 876,4166 1760,4225 2163,3940 1983,3554 1580,3412 1626,2938 1509,2703 2041,2469 "/>
    <polygon class="fil4" points="5491,8538 5692,8584 5793,8643 5801,8714 5684,8815 5294,8865 5080,8706 "/>
    <polygon class="fil5" points="5478,8530 5331,8530 5223,8563 5118,8643 5105,8714 5172,8752 5290,8794 5528,8794 5646,8756 5751,8680 5692,8626 "/>
    <polygon class="fil6" points="2108,3051 2196,2720 2506,2683 2125,2322 2037,2821 "/>
    <polygon class="fil6" points="2565,3810 2850,3810 3378,3152 3818,3382 3609,3781 3437,4070 2825,4124 "/>
    <polygon class="fil7" points="2268,2850 2448,2779 2796,2821 3202,3378 3437,3554 3324,3894 2896,3894 2423,3554 2268,3123 "/>
    <polygon class="fil8" points="1077,5202 1090,5633 1379,5960 1836,6019 2079,5801 2305,6073 2968,6249 3336,5990 3294,5621 2879,5243 1320,5088 "/>
    <polygon class="fil9" points="2506,6476 2938,6522 3336,6404 3148,6836 2825,6836 2578,6778 "/>
    <polygon class="fil7" points="2108,3311 2536,4024 2808,4342 3525,4414 3538,5273 3437,5403 2666,5231 2125,5373 1421,5072 1148,5143 1190,4829 1718,4141 2066,3940 2024,3626 "/>
    <polygon class="fil10" points="105,2594 293,2435 549,2695 436,2863 "/>
    <polygon class="fil10" points="1589,3684 1907,3923 3424,5503 3336,5621 1664,4070 "/>
    <polygon class="fil10" points="4208,6161 6325,8123 7796,7821 7897,8341 6396,8530 4196,6451 "/>
    <polygon class="fil11" points="3626,863 3466,1232 3324,1463 3194,1706 3194,2033 3265,2322 3194,2720 3550,2523 3751,2582 3894,2381 4120,2251 4594,1735 4682,1375 4581,1505 4284,1475 3948,1333 "/>
    <polygon class="fil8" points="1090,1760 1178,2079 1438,2280 1689,2322 1765,2624 1547,2720 650,2636 733,1932 "/>
    <polygon class="fil8" points="3579,3810 3797,3823 4326,4154 4455,4359 4284,4858 3709,4485 3525,4573 3450,4141 3508,3839 "/>
    <polygon class="fil8" points="2066,2695 2209,3165 2423,3655 2951,4024 3479,3994 3508,4384 2796,4384 2268,3613 2024,3009 "/>
    <polygon class="fil8" points="3378,1333 3026,972 2494,884 2221,960 2037,1362 1978,1920 2221,2192 2167,2435 2393,2683 2896,2792 3307,3152 3479,3424 3651,3626 3919,3294 4636,3454 4996,3454 4837,2594 4367,1991 3948,2423 3848,2720 3609,2653 3123,2880 3106,2234 2976,1878 3123,1475 "/>
    <polygon class="fil7" points="465,2892 721,2666 1148,2666 1618,2783 1677,2951 1576,3353 1953,3525 2037,3751 1966,3823 1576,3542 1463,3668 1505,4082 1278,4154 1148,3911 1107,4212 863,4124 935,3466 935,3341 1236,3165 1421,3123 1249,2963 834,2951 675,3253 448,3035 "/>
    <polygon class="fil7" points="4326,4942 3852,4791 3751,5202 4095,5302 4225,5700 4183,5843 4326,6019 4338,5931 4284,5361 4409,5130 "/>
    <polygon class="fil7" points="3349,5872 3366,5604 3466,5604 3550,5872 3667,5575 3751,5591 3818,5943 3936,5818 4108,6002 3936,6191 4095,6203 4208,6275 4166,6463 3906,6350 3726,6132 3579,6203 3378,6132 "/>
    <polygon class="fil7" points="2565,6622 2779,6681 3278,6493 3223,6664 2976,6778 2578,6740 "/>
    <polygon class="fil3" points="1978,1534 1878,1878 1895,2150 1517,1903 1605,2150 1249,2150 1576,2653 2079,2611 2196,2221 "/>
    <polygon class="fil3" points="4908,3466 4208,3424 3751,3483 3877,3282 4426,3311 "/>
    <polygon class="fil3" points="4937,3554 4724,3626 4108,3642 4267,3823 3818,3839 4439,4313 4782,4011 "/>
    <polygon class="fil3" points="4338,231 4238,633 3919,1031 3550,687 3349,1102 3466,1232 3567,872 3864,1274 4066,1417 4326,604 "/>
    <polygon class="fil3" points="4707,415 4736,675 4854,587 4967,901 4837,1132 4707,842 4455,1387 4238,1375 4166,1463 4267,1505 4523,1505 4636,1404 4824,1404 4996,1161 5097,884 4908,503 4694,285 "/>
    <polygon class="fil3" points="3596,2133 3751,2133 4066,2263 4020,2364 3848,2423 3651,2322 "/>
    <polygon class="fil3" points="1236,1777 1278,2004 1446,1790 "/>
    <polygon class="fil3" points="1576,1735 1748,1861 1836,1517 "/>
    <polygon class="fil12" points="2066,4141 1748,4141 1664,4041 1563,3693 1836,3823 "/>
    <polygon class="fil12" points="4367,6321 4556,6807 4208,6421 4238,6249 "/>
    <polygon class="fil12" points="6455,8240 7695,7951 7783,8328 6396,8530 6308,8454 "/>
    <polygon class="fil12" points="176,2553 495,2754 394,2892 "/>
    <polygon class="fil13" points="1048,5260 1534,5302 1895,5575 1689,5801 1379,5931 1853,6031 2096,5818 2079,5373 1438,5072 1090,5189 "/>
    <polygon class="fil13" points="2180,5642 2351,5960 2766,6019 3206,5990 2926,6191 2351,6174 2196,5973 "/>
    <polygon class="fil13" points="2364,3823 2666,3823 2968,4053 3479,3994 3479,4384 2825,4372 "/>
    <polygon class="fil13" points="2180,2423 2364,2683 2666,2611 2364,2293 2393,2062 2037,1576 2024,1832 2167,2163 "/>
    <polygon class="fil13" points="788,2305 977,2582 675,2611 "/>
    <polygon class="fil13" points="3978,3965 4036,4212 3978,4690 4296,4841 4409,4271 "/>
    <polygon class="fil13" points="3596,3596 3366,3253 3466,3035 3651,3253 3848,3081 4166,3181 4523,3181 4439,2792 4569,2683 4439,2381 4066,2335 4367,2004 4782,2536 4954,3341 4707,3424 3906,3265 3768,3395 3726,3542 "/>
    <polygon class="fil13" points="3395,1333 3093,1274 2825,1517 2737,1832 2993,2335 2896,1802 3047,1417 "/>
    <polygon class="fil7" points="3496,4070 3936,4200 4225,4384 4355,4573 4326,4699 4066,4414 3525,4330 "/>
    <polygon class="fil7" points="834,1878 964,2192 1291,2263 1576,2452 1677,2594 1589,2666 1278,2435 763,2322 692,2121 "/>
    <polygon class="fil14" points="3538,5491 3651,5315 4066,5361 4137,5633 4149,5918 3848,5604 3579,5604 "/>
    <polygon class="fil15" points="3248,1693 3336,2104 3437,2280 3236,2666 3248,2293 3194,1920 "/>
    <polygon class="fil15" points="3508,2494 3626,2234 3877,2406 3739,2523 "/>
    <polygon class="fil15" points="3479,1245 3651,1216 3994,1362 3609,930 "/>
    <polygon class="fil15" points="4036,1505 3768,1417 3877,1735 4108,1635 4225,1635 4137,1978 4367,1878 4569,1664 4665,1417 4556,1505 4267,1492 4120,1433 "/>
    <polygon class="fil16" points="2465,3881 2351,4141 2377,4430 2649,4699 2951,4644 3294,4912 3206,5243 3408,5420 3525,5189 3508,4430 2838,4330 "/>
    <polygon class="fil16" points="2180,4602 2066,4958 1865,5101 1563,4887 1337,4971 1165,5101 1534,5088 2037,5361 2221,5030 2465,4812 "/>
    <polygon class="fil16" points="4355,5042 4066,5000 3919,5072 4267,5361 4397,5160 "/>
    <polygon class="fil16" points="1266,2280 1249,2435 1618,2666 1647,2523 "/>
    <polygon class="fil16" points="2867,6639 2909,6778 2578,6748 2565,6610 2779,6690 "/>
    <polygon class="fil17" points="4347,0 3877,13 3563,130 3370,474 3286,922 3336,1216 3466,1299 3609,1002 3852,1299 4020,1396 3852,1182 3642,826 3584,813 3441,1144 3370,1098 3370,838 3487,440 3596,201 3831,84 4041,50 4300,117 4326,428 4300,734 4422,394 4422,38 "/>
    <polygon class="fil17" points="4543,50 4699,109 4736,260 4866,344 5030,570 5093,884 4996,1203 4833,1442 4640,1454 4573,1551 4254,1526 4020,1429 3982,1358 4196,993 4087,1337 4208,1442 4523,1492 4652,1262 4745,851 4736,1169 4690,1345 4803,1383 4971,1136 5021,826 4925,557 4782,381 4724,654 4652,180 "/>
    <polygon class="fil17" points="3349,1417 3169,1693 3123,1957 3227,2326 3110,2938 3336,2636 3563,2540 3751,2624 3898,2423 3739,2527 3550,2444 3408,2527 3240,2645 3324,2293 3240,2029 3227,1786 "/>
    <polygon class="fil17" points="3123,2326 3550,2821 3077,2724 3278,2938 3265,3022 2963,2645 3349,2716 3097,2385 "/>
    <polygon class="fil17" points="3278,1203 3064,935 2607,813 2276,872 2029,1123 1936,1299 1488,1714 1090,1693 708,1911 608,2293 645,2716 767,2683 746,2423 876,2314 780,2150 863,1899 1161,1760 1463,1815 1890,1538 1878,1815 2054,2079 2125,2171 2020,2527 1748,2586 1568,2360 1220,2242 1442,2398 1618,2540 1568,2695 1677,2724 1760,2657 1983,2666 1970,3022 2079,3378 2020,3592 2041,3684 2125,3471 2322,3626 2150,3211 2079,2938 2150,2561 2217,2280 2511,2444 2150,1983 2054,1643 2079,1371 2238,1039 2536,935 2687,922 3022,1014 "/>
    <polygon class="fil17" points="4493,2184 4891,2611 5021,3399 4912,3856 4724,4120 4455,4309 4347,4908 4267,4837 4359,4414 4267,4108 4443,4212 4770,3978 4925,3613 4912,3483 4606,3483 3948,3303 3797,3471 3596,3303 3525,3093 3806,3328 3806,3190 4087,3198 4678,3391 4879,3328 4803,2703 "/>
    <polygon class="fil17" points="3466,1312 3525,1957 3584,2041 3839,2079 4078,2255 3957,2242 3609,2112 3701,2268 3831,2351 4041,2360 3936,2456 3806,2456 3642,2372 3550,2221 3525,2079 3454,1899 3441,1371 "/>
    <polygon class="fil17" points="4632,1572 4573,1786 4300,2112 4066,2385 4020,2230 4137,2196 4539,1739 "/>
    <polygon class="fil17" points="3844,1438 4053,1492 4137,1630 3911,1618 3936,1538 "/>
    <polygon class="fil17" points="4493,1605 4279,1605 4254,1702 4041,1983 3923,1865 3994,1786 3839,1853 3969,1995 4066,2079 4208,2008 4196,1924 4313,1727 4384,1739 4422,1668 "/>
    <polygon class="fil17" points="3672,1840 3839,1936 3957,2079 3797,1983 3714,1983 "/>
    <polygon class="fil17" points="1664,3303 1760,2880 1639,2724 1291,2574 650,2599 394,2833 394,3022 889,3613 805,4204 1044,4271 1475,4271 1794,4179 1605,3994 1207,4179 910,4095 972,3764 981,3462 570,3093 524,2900 721,2716 1195,2683 1501,2783 1618,2951 1559,3236 1337,3303 1723,3424 1936,3542 2045,3827 2008,3944 1618,3714 2008,4087 2163,4062 2150,3764 1970,3471 "/>
    <polygon class="fil17" points="1408,4250 993,4661 922,4954 1052,5311 1111,5181 1501,5143 1769,5311 2041,5453 2054,5667 2125,5981 2268,6124 2230,6195 2381,6434 2511,6513 2502,6719 2691,7121 2582,6551 2750,6576 3110,6493 2607,6467 2309,6208 2607,6254 2963,6270 3185,6036 2905,6128 2536,6124 2230,5994 2184,5642 2217,5386 2586,5256 2289,5076 2523,4887 2444,4808 2209,4984 2041,5290 1710,5143 1501,4979 1044,5097 1019,4921 1182,4615 1559,4225 "/>
    <polygon class="fil17" points="1065,5239 1027,5596 1169,5839 1337,5969 1689,6019 1769,6040 1827,6124 2268,6241 2268,6174 1890,6065 2008,5994 2125,5864 2125,5621 1995,5864 1760,5981 1396,5922 1220,5751 1123,5545 1136,5311 1136,5155 "/>
    <polygon class="fil17" points="2594,7268 2452,7008 2486,6924 2687,6924 2821,6995 2867,7197 3009,7054 3324,7008 3349,7104 3219,7255 3123,7398 3194,7591 3194,7763 3030,7872 2289,8048 1911,7951 1840,7679 1924,7591 2406,7339 2439,7444 2276,7494 2297,7591 2079,7599 2368,7737 2418,7566 2641,7553 2582,7389 2783,7339 "/>
    <polygon class="fil17" points="2112,7976 2066,8198 1819,8165 1794,8236 1962,8391 2347,8366 2984,8048 3169,7939 3051,7930 2867,7997 2888,7809 2771,7834 2724,8035 2276,8198 2289,8010 "/>
    <polygon class="fil17" points="4011,5696 4091,6036 4292,6128 4447,5939 4313,5596 4313,5407 4443,5239 4455,5076 4254,4741 3768,4476 3454,4510 3500,5264 3349,5373 3479,5528 3596,5277 3797,5181 3642,5134 3563,4615 3751,4594 4242,4883 4372,5134 4221,5336 4317,5830 4279,5985 4162,5893 "/>
    <polygon class="fil17" points="2008,4011 3479,5482 3433,5516 1840,3940 "/>
    <polygon class="fil17" points="3311,5696 3311,5558 3420,5478 3538,5440 3621,5570 3680,5466 3797,5491 3915,5575 4070,5658 4091,6057 3994,5797 3864,5679 3797,5889 3760,5621 3680,5621 3596,5830 3538,5537 3378,5583 3374,5843 "/>
    <polygon class="fil17" points="3429,5994 3584,6174 3751,6208 3898,6396 4170,6526 4288,6300 4254,6078 4053,6031 3936,6195 4087,6124 4196,6149 4170,6421 3948,6325 3751,6065 3630,6136 "/>
    <polygon class="fil17" points="1689,4003 3324,5600 3362,5738 1580,4036 1584,3676 "/>
    <polygon class="fil17" points="4208,6396 4183,6509 6354,8597 7817,8425 7934,8354 7876,7775 7771,7775 6597,8060 7783,7846 7867,8307 6400,8504 "/>
    <polygon class="fil17" points="4254,6111 6430,8165 7515,7939 7574,8379 7444,8412 7301,8060 7243,8483 6643,8555 6493,8261 6325,8437 6216,8366 6329,8194 4242,6220 "/>
    <polygon class="fil17" points="4422,3668 4288,3634 4313,3600 4439,3550 4573,3600 4497,3743 4330,3873 4414,3915 4330,3982 4120,3856 4145,3806 4229,3839 4313,3743 "/>
    <polygon class="fil17" points="4820,3684 4669,3655 4539,3806 4652,3856 4745,3802 4820,3898 4879,3802 "/>
    <polygon class="fil17" points="4787,3973 4703,3890 4506,3932 4414,4032 4585,4166 4636,4124 4539,4032 4632,4024 4753,4024 "/>
    <polygon class="fil17" points="1291,1890 1274,1974 1358,2142 1475,2092 1400,2050 1366,1949 1488,1949 1614,2041 1748,1991 1865,1924 1815,1790 1622,1790 1664,1848 1790,1865 1798,1907 1689,1941 1538,1865 1383,1899 "/>
    <polygon class="fil17" points="1257,1735 1274,1823 1341,1832 1341,1777 "/>
    <polygon class="fil17" points="1521,1752 1790,1718 1681,1639 "/>
    <polygon class="fil17" points="3634,3575 3596,3747 3487,3806 3420,4066 3429,4242 3512,4514 3588,4514 3533,4258 3529,4133 3730,4150 4112,4300 3902,4108 3554,4024 3546,3881 3730,3881 4120,4015 3860,3789 3672,3756 3688,3655 3768,3508 "/>
    <polygon class="fil17" points="2255,3584 2389,3864 2687,4267 2842,4426 3194,4443 3504,4460 3496,4326 3286,4351 3026,4284 2863,4275 2515,3923 "/>
    <polygon class="fil17" points="5269,8551 5160,8584 5067,8643 5093,8873 5227,8974 5373,8995 5625,8978 5797,8907 5868,8827 5860,8651 5788,8580 5537,8525 5407,8534 5566,8563 5721,8613 5793,8676 5679,8777 5524,8819 5315,8819 5122,8718 5122,8664 5176,8618 "/>
    <polygon class="fil17" points="381,2884 134,2649 42,2624 0,2565 17,2473 264,2351 381,2389 394,2506 595,2708 537,2741 289,2494 193,2590 457,2846 "/>
    <polygon class="fil17" points="3315,6543 3479,6757 3588,6786 3726,6719 3667,6174 3387,5985 3420,6107 3336,6388 "/>
    <polygon class="fil17" points="3693,6530 3818,6568 3864,6773 3948,6706 3936,6388 3797,6199 3797,6413 3575,6388 "/>
    <polygon class="fil17" points="3236,5608 3320,5985 3299,6228 3215,6497 3148,6794 2968,6849 2720,6807 2863,6895 3131,6882 3030,7084 3156,7037 3190,6878 3362,6585 3487,6044 3399,5939 3336,5679 "/>
    <polygon class="fil17" points="3479,981 3362,1345 3701,1760 4560,1983 4699,1924 4937,1501 4971,1241 4879,1299 4841,1501 4652,1853 4481,1911 3726,1702 3441,1345 3596,910 "/>
    <polygon class="fil1" points="5973,8836 6396,8953 6300,9121 5382,9142 "/>
    <polygon class="fil1" points="6656,8605 8068,8789 7100,8907 "/>
    <polygon class="fil17" points="2460,2808 2900,3160 3035,3429 3320,3701 3253,3835 2917,3579 2867,3278 2444,3077 "/>
    <polygon class="fil17" points="2477,3328 2582,3579 3035,3919 2817,3512 2511,3194 "/>
   </g>
  </g>
 </g>
</svg>
